PathFileType	4	(X/Y/Z)	SUBJ89_1_walk_RCNL2025.trc
DataRate	CameraRate	NumFrames	NumMarkers	Units	OrigDataRate	OrigDataStartFrame	OrigNumFrames
100	100	12	25	mm	100	61	243
Frame#	Time	R_Shoulder			L_Shoulder			C7			J_Notch			R_Elbow			L_Elbow			R_Wrist			L_Wrist			R_Asis			L_Asis			Sacral			Thoracic			Sternum			R_Thigh_Lateral			R_Knee_Lateral			R_Shank_Lateral			R_Ankle_Lateral			R_Heel			R_Toe			L_Thigh_Lateral			L_Knee_Lateral			L_Shank_Lateral			L_Ankle_Lateral			L_Heel			L_Toe		
		X1	Y1	Z1	X2	Y2	Z2	X3	Y3	Z3	X4	Y4	Z4	X5	Y5	Z5	X6	Y6	Z6	X7	Y7	Z7	X8	Y8	Z8	X9	Y9	Z9	X10	Y10	Z10	X11	Y11	Z11	X12	Y12	Z12	X13	Y13	Z13	X14	Y14	Z14	X15	Y15	Z15	X16	Y16	Z16	X17	Y17	Z17	X18	Y18	Z18	X19	Y19	Z19	X20	Y20	Z20	X21	Y21	Z21	X22	Y22	Z22	X23	Y23	Z23	X24	Y24	Z24	X25	Y25	Z25
61	0.60000000	-1121.308716	1399.317993	453.724823	-1138.039307	1429.490479	41.541378	-1201.416382	1502.541504	255.429840	-1076.983398	1382.054077	246.793015	-1215.345093	1072.248779	480.598053	-1143.974854	1086.558472	-5.856907	-1128.104126	816.398743	483.851089	-989.091400	866.393707	-2.402854	-1084.817139	991.229370	353.321838	-1087.356689	979.227539	114.990952	-1253.318115	1044.927612	246.023407	-1278.947144	1325.973022	246.949890	-1041.736084	1235.018311	227.336121	-1087.456421	606.058716	407.294495	-1071.622803	492.781891	345.044220	-1093.803101	267.229492	382.086609	-1122.625366	64.280945	301.335358	-1161.656494	56.741512	257.298248	-962.756531	31.520615	279.633057	-1100.116455	554.734741	17.034531	-1098.852295	472.654999	87.400719	-1292.496338	342.475952	63.984318	-1430.311401	204.944275	142.685379	-1443.705566	232.753784	195.797424	-1360.845215	69.997421	129.252426
62	0.61000000	-1106.329590	1401.776733	453.927124	-1125.543579	1431.565186	41.484211	-1187.440430	1504.469116	255.942963	-1062.917480	1384.205688	246.656693	-1198.754272	1074.330444	481.771942	-1134.595215	1088.660645	-5.825596	-1109.263306	819.274323	483.669815	-984.015839	865.467010	-3.941257	-1071.129639	992.529053	353.795807	-1073.447998	981.771851	115.361961	-1239.435547	1047.009277	246.733353	-1264.824219	1327.819214	248.168289	-1027.762329	1237.165283	227.072708	-1080.818359	606.398132	407.693481	-1067.884521	492.582275	345.310883	-1092.091309	267.227661	382.390930	-1122.562500	64.467934	301.417419	-1161.627563	57.107094	257.439911	-962.805908	31.507561	279.704498	-1077.598755	558.680542	16.750040	-1072.657471	477.063141	86.837936	-1263.117432	342.747986	63.546776	-1396.574951	200.749130	142.088882	-1411.480347	227.972076	195.118210	-1321.183472	69.955276	126.186874
63	0.62000000	-1091.334839	1404.077026	454.068939	-1112.979248	1433.485352	41.435635	-1173.474854	1506.159912	256.412781	-1048.845947	1386.138794	246.490173	-1182.167725	1076.289307	482.973816	-1125.463379	1090.665161	-5.886686	-1090.338989	822.075562	483.427917	-979.174011	864.582764	-5.566880	-1057.660522	993.612671	354.323975	-1059.554443	984.154846	115.869347	-1225.639648	1048.828857	247.389557	-1250.720215	1329.437866	249.317398	-1013.816284	1239.092651	226.839722	-1074.112427	606.670898	407.962952	-1064.212402	492.375610	345.495300	-1090.728882	267.262756	382.637909	-1122.474365	64.684486	301.446014	-1161.564575	57.493164	257.502991	-962.826843	31.484602	279.772827	-1055.236816	562.516846	16.659422	-1046.971680	481.443909	86.496521	-1233.382935	341.940796	62.952618	-1361.756958	194.967072	141.200409	-1378.275757	221.760986	194.036133	-1280.217773	68.793274	124.108604
64	0.63000000	-1076.308594	1406.155884	454.146942	-1100.296021	1435.188232	41.396992	-1159.509277	1507.587524	256.834686	-1034.773315	1387.813110	246.298538	-1165.594727	1078.066528	484.201782	-1116.576050	1092.506104	-6.007802	-1071.329346	824.746002	483.102661	-974.534576	863.702301	-7.268565	-1044.368652	994.439087	354.884521	-1045.685303	986.333435	116.491089	-1211.924438	1050.353027	247.987869	-1236.637207	1330.807861	250.385574	-999.906494	1240.742065	226.643829	-1067.284546	606.854797	408.117828	-1060.528076	492.154175	345.627930	-1089.597534	267.309418	382.852997	-1122.357910	64.919357	301.418091	-1161.465332	57.890759	257.498505	-962.822754	31.452765	279.843475	-1032.977417	566.213806	16.757839	-1021.815430	485.701324	86.390800	-1203.235229	340.050903	62.207542	-1325.958374	187.816727	140.047089	-1344.088867	214.242722	192.635727	-1238.137817	66.671799	122.894478
65	0.64000000	-1061.245361	1407.954224	454.161133	-1087.456787	1436.610352	41.362156	-1145.533203	1508.731934	257.201691	-1020.703674	1389.191895	246.089127	-1149.039551	1079.604004	485.456696	-1107.914429	1094.119995	-6.158345	-1052.234131	827.226959	482.673660	-970.053619	862.779358	-9.042466	-1031.208252	994.971497	355.450745	-1031.847046	988.258728	117.192001	-1198.281006	1051.561401	248.517319	-1222.578735	1331.913818	251.362793	-986.037903	1242.062012	226.488861	-1060.271362	606.947571	408.192230	-1056.754639	491.910248	345.743103	-1088.517456	267.348602	383.057831	-1122.212524	65.163811	301.342499	-1161.331177	58.293167	257.445618	-962.798950	31.413553	279.921082	-1010.787170	569.756042	17.035685	-997.196472	489.751984	86.524330	-1172.647217	337.142822	61.344883	-1289.283813	179.557785	138.668198	-1308.926025	205.557129	191.018433	-1195.082642	63.809860	122.363655
66	0.65000000	-1046.150635	1409.421997	454.113617	-1074.438110	1437.692871	41.319286	-1131.536255	1509.577393	257.504791	-1006.638550	1390.242798	245.868576	-1132.501831	1080.849121	486.738708	-1099.443237	1095.454102	-6.315465	-1033.056244	829.463806	482.128067	-965.671539	861.762695	-10.892588	-1018.147095	995.179199	355.993103	-1018.041138	989.877869	117.930916	-1184.699707	1052.445801	248.962906	-1208.547119	1332.744995	252.239655	-972.211731	1243.013062	226.376144	-1053.022949	606.953735	408.224487	-1052.823608	491.634247	345.867218	-1087.307617	267.367401	383.266022	-1122.038452	65.413773	301.235260	-1161.162476	58.696175	257.360626	-962.758484	31.367270	280.004730	-988.663574	573.129089	17.481194	-973.123535	493.524872	86.889122	-1141.630737	333.338013	60.421482	-1251.799438	170.459885	137.116989	-1272.799316	195.858734	189.290283	-1151.150391	60.461933	122.309662
67	0.66000000	-1031.038574	1410.521118	454.007050	-1061.231934	1438.387939	41.254116	-1117.509521	1510.113037	257.734436	-992.577148	1390.938110	245.639130	-1115.976196	1081.758789	488.044373	-1091.112915	1096.471680	-6.468176	-1013.804260	831.410553	481.465942	-961.324585	860.600220	-12.825273	-1005.166443	995.043091	356.484589	-1004.264404	991.138367	118.666153	-1171.171143	1053.008545	249.310242	-1194.541992	1333.295898	253.007446	-958.425842	1243.570923	226.303864	-1045.516968	606.871765	408.243042	-1048.681396	491.313232	346.012726	-1085.833008	267.355255	383.482025	-1121.836426	65.670380	301.113831	-1160.957886	59.099174	257.252930	-962.699036	31.311932	280.084656	-966.630005	576.313416	18.081642	-949.616333	496.961090	87.468002	-1110.232178	328.794647	59.504646	-1213.516602	160.781021	135.458832	-1235.722534	185.314545	187.553223	-1106.422119	56.891304	122.532509
68	0.67000000	-1015.927734	1411.227783	453.843750	-1047.845825	1438.663330	41.152786	-1103.445190	1510.332275	257.882751	-978.517761	1391.257446	245.398193	-1099.452271	1082.302246	489.365784	-1082.862183	1097.153687	-6.617191	-994.492645	833.032990	480.700745	-956.962616	859.245239	-14.841549	-992.248169	994.562866	356.907410	-990.509949	991.994019	119.360901	-1157.685059	1053.255737	249.549911	-1180.559082	1333.564575	253.658157	-944.674683	1243.725220	226.267105	-1037.758057	606.688721	408.261017	-1044.294556	490.931244	346.179626	-1084.029907	267.302216	383.701660	-1121.607300	65.938087	300.991089	-1160.720337	59.509933	257.129791	-962.614624	31.243721	280.145477	-944.730713	579.282837	18.824087	-926.708557	500.013153	88.236443	-1078.525513	323.687347	58.655270	-1174.415527	150.761124	133.763153	-1197.714233	174.108200	185.894409	-1060.984375	53.348499	122.863892
69	0.68000000	-1000.837891	1411.531250	453.625854	-1034.302856	1438.505127	41.003571	-1089.336426	1510.232422	257.944458	-964.457092	1391.188110	245.139999	-1082.917847	1082.462891	490.691833	-1074.623291	1097.494385	-6.770443	-975.141113	834.310822	479.855301	-952.555573	857.660370	-16.933007	-979.361328	993.765076	357.259369	-976.769531	992.409363	119.988503	-1144.230713	1053.194214	249.679199	-1166.590820	1333.551636	254.185226	-930.949829	1243.475952	226.257797	-1029.769409	606.383301	408.278503	-1039.649536	490.472015	346.359772	-1081.906616	267.200836	383.914825	-1121.352417	66.220131	300.868927	-1160.458740	59.944019	256.996521	-962.500977	31.159254	280.174347	-923.030823	582.002625	19.696896	-904.444275	502.642914	89.162453	-1046.603638	318.189270	57.916847	-1134.477051	140.617126	132.097565	-1158.806152	162.449417	184.373245	-1014.941406	50.059284	123.180199
70	0.69000000	-985.787109	1411.434082	453.356171	-1020.636597	1437.916382	40.797520	-1075.178101	1509.815063	257.916626	-950.389465	1390.726929	244.858337	-1066.362061	1082.237671	492.008301	-1066.329468	1097.497314	-6.937575	-955.773773	835.237671	478.956100	-948.085876	855.820160	-19.082727	-966.455933	992.707825	357.558014	-963.036194	992.362183	120.534012	-1130.796387	1052.830811	249.700882	-1152.628174	1333.259399	254.584625	-917.240662	1242.830444	226.264511	-1021.582703	605.932434	408.288239	-1034.749268	489.923065	346.540802	-1079.523438	267.048737	384.108551	-1121.071167	66.515961	300.735474	-1160.181519	60.416576	256.847473	-962.359375	31.058096	280.167938	-901.619507	584.426514	20.688578	-882.870972	504.817657	90.207695	-1014.573547	312.458588	57.314030	-1093.705566	130.537552	130.525101	-1119.049072	150.580521	183.013062	-968.418823	47.220234	123.404587
71	0.70000000	-970.789917	1410.949951	453.038025	-1006.884705	1436.914062	40.527916	-1060.967896	1509.085693	257.797546	-936.307678	1389.879272	244.548355	-1049.779053	1081.636230	493.295135	-1057.922363	1097.172607	-7.126605	-936.418762	835.819519	478.028214	-943.539093	853.712860	-21.268656	-953.476746	991.465637	357.836212	-949.301208	991.847107	120.991348	-1117.370483	1052.173828	249.619980	-1138.663208	1332.692383	254.855392	-903.535706	1241.802612	226.272827	-1013.234253	605.317688	408.281128	-1029.608398	489.279205	346.708588	-1076.963745	266.850006	384.268036	-1120.759277	66.821487	300.567078	-1159.890503	60.936581	256.659607	-962.196899	30.943636	280.133301	-880.613342	586.495239	21.782373	-862.033386	506.507263	91.329788	-982.551270	306.632355	56.855515	-1052.142212	120.691292	129.098663	-1078.505005	138.768997	181.808289	-921.559692	45.000992	123.503380
72	0.71000000	-955.855530	1410.101318	452.673553	-993.083130	1435.524414	40.189537	-1046.705933	1508.053223	257.586243	-922.204346	1388.660034	244.205719	-1033.168579	1080.677979	494.525177	-1049.356445	1096.535400	-7.341682	-917.108124	836.071960	477.091461	-938.900238	851.340759	-23.467385	-940.391296	990.098267	358.128937	-935.548218	990.878174	121.359901	-1103.940308	1051.230469	249.442917	-1124.689331	1331.857544	254.999557	-889.824341	1240.412720	226.266388	-1004.765198	604.530579	408.251251	-1024.249634	488.543732	346.848907	-1074.307007	266.614227	384.375397	-1120.406982	67.129944	300.332397	-1159.578735	61.507954	256.394379	-962.022400	30.821684	280.083252	-860.153931	588.133728	22.950352	-841.970459	507.682343	92.483368	-950.656555	300.826843	56.536739	-1009.863708	111.248978	127.853737	-1037.236938	127.284882	180.744125	-874.513062	43.552326	123.479095
